<svg class="logo-svg is-ready" xmlns="http://www.w3.org/2000/svg" xmlns:xlink="http://www.w3.org/1999/xlink" viewBox="0 0 475.8 158.6"><defs><style>
            .logo-svg-group .circle {
                fill: #37b662;
            }

            .logo-svg-group .letter {
                fill: #fff;
            }
        </style><clipPath id="header-logo"><path class="circle" d="M0,79.3c0,44.76,34.54,79.3,79.3,79.3s79.3-34.54,79.3-79.3S124.06,0,79.3,0,0,34.54,0,79.3Z" data-svg-origin="79.30000305175781 79.30000305175781" transform="matrix(1,0,0,1,0,0)" style="transform-origin: 0px 0px 0px;"/><path class="circle" d="M158.6,79.3c0,44.76,34.54,79.3,79.3,79.3s79.3-34.54,79.3-79.3S282.66,0,237.9,0,158.6,34.54,158.6,79.3Z" data-svg-origin="237.90000915527344 79.30000305175781" transform="matrix(1,0,0,1,0,0)" style="transform-origin: 0px 0px 0px;"/><path class="circle" d="M317.2,79.3c0,44.76,34.54,79.3,79.3,79.3s79.3-34.54,79.3-79.3S441.26,0,396.5,0,317.2,34.54,317.2,79.3Z" data-svg-origin="396.5 79.30000305175781" transform="matrix(1,0,0,1,0,0)" style="transform-origin: 0px 0px 0px;"/></clipPath></defs><g class="logo-svg-group" clip-path="url(#header-logo)"><path class="circle" d="M0,79.3c0,44.76,34.54,79.3,79.3,79.3s79.3-34.54,79.3-79.3S124.06,0,79.3,0,0,34.54,0,79.3Z"/><path class="circle" d="M158.6,79.3c0,44.76,34.54,79.3,79.3,79.3s79.3-34.54,79.3-79.3S282.66,0,237.9,0,158.6,34.54,158.6,79.3Z"/><path class="circle" d="M317.2,79.3c0,44.76,34.54,79.3,79.3,79.3s79.3-34.54,79.3-79.3S441.26,0,396.5,0,317.2,34.54,317.2,79.3Z"/><path class="letter" d="M393.1,85.6C366,81.2,364,70.3,364,63.6c0-19.9,26.1-20.8,30.4-20.8,14.1,0,25.8,5.2,30.6,9.7V74.4h-.7c-8.2-16.2-23-18.1-31.3-18.1-5.2,0-13.4.6-13.4,7.3,0,5.2,5.8,6.7,20.3,9.1C427,77.1,429,88.3,429,95c0,19.9-26.1,20.8-30.4,20.8-15.3,0-25.8-5.5-30.6-10.2V83.7h.7c8.2,16.6,22.7,18.6,31.3,18.6,5.2,0,13.4-.6,13.4-7.3C413.4,89.8,407.6,88,393.1,85.6Z"/><path class="letter" d="M238.4,110.6l10-66.3h30.3v70H264.3v-65h-1.4l-11,65h-28l-11-65h-1.4v65H197.1v-70h30.3l10,66.3Z"/><path class="letter" d="M79.9,87.9h28.3v1C102,96.6,91.3,101,79.2,101c-13.9,0-23.3-9.5-23.3-21.7s9.4-21.7,23.3-21.7c11.2,0,20.3,4.5,25.4,14.5h.8V50.3c-7.4-5.6-16.8-7.5-25.5-7.5-23.3,0-40,15.9-40,36.5s16.7,36.5,40,36.5c13.4,0,24.4-4.5,30.8-10.2V74.4H79.9Z"/></g></svg>